<?xml version="1.0" encoding="UTF-8"?>
<!DOCTYPE svg PUBLIC "-//W3C//DTD SVG 1.1//EN" "http://www.w3.org/Graphics/SVG/1.1/DTD/svg11.dtd">
<!-- Creator: CorelDRAW X8 -->
<svg xmlns="http://www.w3.org/2000/svg" xml:space="preserve" width="100mm" height="100mm" version="1.1" style="shape-rendering:geometricPrecision; text-rendering:geometricPrecision; image-rendering:optimizeQuality; fill-rule:evenodd; clip-rule:evenodd"
viewBox="0 0 10000 10000"
 xmlns:xlink="http://www.w3.org/1999/xlink">
 <defs>
  <style type="text/css">
   <![CDATA[
    .fil0 {fill:#442767}
   ]]>
  </style>
 </defs>
 <g id="Layer_x0020_1">
  <metadata id="CorelCorpID_0Corel-Layer"/>
  <path class="fil0" d="M5029 3932c21,1 41,-8 55,-24l0 912c-3,0 -5,1 -8,2l-2 0c11,-297 18,-605 10,-914l1 0c5,1 9,3 13,5l0 903 4 -1 0 -900c7,2 13,5 19,8l0 887 4 -1 0 -884c7,3 13,6 19,8l0 872c23,-4 47,-8 69,-10 36,-3 68,-4 91,-1 207,-409 223,-723 224,-786 -34,15 -136,59 -154,58l0 0 -142 -169c5,105 -8,253 -11,307 -2,19 -3,41 -5,65l0 -472c10,18 15,54 16,96l147 168 66 -59c-23,-32 -98,-134 -114,-146 -23,-8 -22,-10 -40,-29 -13,-15 -26,-28 -39,-43 -9,-11 -33,-32 -36,-44 -12,8 -10,36 -3,51l-1 0 0 531c-5,62 -11,129 -19,183l0 -573c2,-39 8,-95 -15,-136 -2,-5 -4,-11 -5,-19 -17,6 -45,22 -89,39 -15,-15 -35,-23 -55,-22 -20,-1 -40,7 -54,22 -45,-17 -73,-33 -90,-39 -1,8 -3,14 -5,19 -23,41 -17,97 -15,136l0 573c-7,-54 -14,-121 -19,-183l0 -531 -1 0c7,-15 9,-43 -3,-51 -3,12 -27,33 -36,44 -13,15 -26,28 -39,43 -18,19 -17,21 -40,29 -16,12 -91,114 -113,146l66 59 146 -168c2,-42 6,-78 16,-96l0 472c-2,-24 -3,-46 -4,-65 -3,-54 -16,-202 -12,-307l-142 169 0 0c-18,1 -120,-43 -154,-58 1,66 19,410 258,850 45,-5 90,-11 130,-16 -1,-7 -2,-14 -4,-20l0 -889c6,-2 12,-5 19,-8l0 915 4 0 0 -917c6,-3 12,-6 19,-8l0 922 4 0 0 -924c4,-2 9,-4 13,-5l1 0c-8,313 0,625 11,925l-11 2 0 -927c14,16 34,25 55,24zm-2193 3202c37,0 71,-18 102,-54 30,-36 45,-85 45,-146 0,-62 -17,-107 -50,-135 -33,-27 -66,-41 -99,-41 -25,0 -42,3 -53,9 -4,-21 -12,-38 -21,-51 125,-19 187,-76 187,-172 0,-98 -48,-148 -145,-148l-85 0 0 606c0,43 11,76 32,99 22,22 51,33 87,33zm1061 557c-38,0 -68,-13 -91,-39 -22,-26 -34,-58 -34,-98 0,-39 11,-72 33,-99 21,-27 53,-41 95,-41 20,0 42,3 68,9 0,18 6,37 17,60l-20 5c-16,-38 -39,-57 -68,-57 -26,0 -45,10 -59,29 -14,19 -21,43 -21,71 0,38 10,68 29,92 20,24 46,36 78,36 22,0 41,-7 58,-22l7 8c-22,31 -53,46 -92,46zm360 -102l-33 -89 -33 89 66 0zm95 97l-90 0 -5 -17c15,0 22,-6 22,-16 0,-7 -4,-21 -14,-43l-83 0 -11 37c-1,3 -2,6 -2,9 0,8 7,13 22,13l-5 17 -71 0 -5 -17c17,0 31,-14 41,-40l61 -159c-5,-15 -13,-23 -24,-23l-8 0 -7 -15c7,0 16,-3 27,-10 11,-7 21,-10 29,-10 7,0 14,10 21,29l69 189c3,7 6,15 11,24 4,10 13,15 27,15l-5 17zm229 0l-75 0 -7 -17c15,0 23,-10 23,-28l0 -199 -27 0c-18,0 -31,4 -38,10 -8,6 -15,16 -21,30l-13 -4c8,-22 12,-43 12,-63 6,3 26,5 61,5l103 0c32,0 51,-2 55,-5 0,23 3,44 10,62l-15 5c-4,-14 -10,-24 -18,-30 -7,-6 -20,-9 -39,-10l-27 0 0 199c0,18 8,28 23,28l-7 17zm409 5c-7,-4 -23,-5 -48,-5l-142 0 -6 -17c19,0 29,-8 29,-24l0 -184c0,-16 -11,-24 -32,-24l7 -17 141 0c12,0 23,-2 31,-5 3,19 9,38 19,58l-9 5c-22,-26 -52,-39 -92,-39l-21 0 0 99 27 0c24,0 36,-8 36,-23l10 -5c3,20 12,44 25,69l-10 7c-11,-20 -29,-30 -55,-30l-33 0 0 61c0,19 3,31 10,38 7,7 21,10 44,10 35,0 62,-14 79,-44l8 6c-8,20 -14,41 -18,64zm387 -5l-40 0c-21,-1 -34,-20 -41,-55 -8,-36 -24,-54 -49,-54 -4,0 -10,1 -17,3l-8 -9c10,-10 15,-18 17,-25 5,5 14,7 26,7 11,0 20,-5 27,-14 7,-10 10,-23 10,-40 0,-19 -5,-34 -16,-45 -12,-11 -27,-16 -48,-16 -5,0 -15,1 -29,4l0 193c0,22 9,34 27,34l-7 17 -77 0 -6 -17c15,0 22,-12 22,-34l0 -146c0,-29 -9,-44 -27,-44l7 -19c35,-7 73,-10 113,-10 23,0 44,8 61,23 17,16 26,33 26,54 0,40 -25,65 -75,75 30,0 50,17 60,50 9,34 27,50 52,51l-8 17zm218 0l-76 0 -6 -17c15,0 22,-10 22,-28l0 -180c0,-16 -8,-24 -24,-24l7 -17 77 0 6 17c-15,0 -22,8 -22,24l0 180c0,18 7,28 22,28l-6 17zm373 0l-16 0 -161 -192 0 133c0,28 9,42 28,42l-6 17 -65 0 -7 -17c18,0 26,-14 26,-42l0 -154c0,-24 -9,-36 -26,-36l7 -17 41 0 156 189 0 -136c0,-24 -8,-36 -25,-36l6 -17 58 0 8 17c-16,0 -24,12 -24,36l0 213zm387 16l-8 0c0,-21 -9,-35 -27,-41 -22,20 -48,29 -77,29 -29,0 -54,-11 -75,-35 -20,-23 -31,-53 -31,-90 0,-44 12,-80 35,-108 23,-29 54,-43 95,-43 19,0 42,3 68,9 0,18 6,37 16,60l-19 5c-17,-38 -39,-57 -68,-57 -24,0 -44,11 -59,31 -15,21 -22,48 -22,80 0,34 8,63 24,86 17,24 37,35 61,35 15,0 28,-5 37,-15 9,-10 13,-21 13,-31 0,-24 -9,-35 -28,-35l-6 -16 97 0 -5 16c-14,0 -21,6 -21,19l0 101zm-3496 -514l-353 0 -21 -54c61,0 92,-25 92,-75l0 -585c0,-50 -34,-75 -101,-75l23 -55 355 0c156,0 234,63 234,190 0,72 -52,134 -157,184 137,35 205,108 205,219 0,69 -24,128 -73,177 -48,49 -116,74 -204,74zm832 20c-89,0 -162,-20 -219,-60 -57,-39 -86,-111 -86,-214l0 -460c0,-50 -26,-75 -77,-75l22 -55 257 0 20 55c-55,0 -82,25 -82,75l0 437c0,81 17,138 50,171 33,33 79,49 139,49 128,0 192,-78 192,-233l0 -424c0,-50 -26,-75 -80,-75l21 -55 208 0 20 55c-56,0 -84,25 -84,75l0 460c0,95 -29,164 -86,208 -57,44 -129,66 -215,66zm1005 -20l-239 0 -22 -54c48,0 71,-29 71,-88l0 -631 -84 0c-59,0 -99,10 -123,30 -23,21 -45,52 -66,96l-39 -15c25,-67 37,-133 37,-200 17,12 82,18 195,18l325 0c104,0 163,-6 177,-17 0,73 10,139 30,199l-46 14c-15,-43 -34,-74 -57,-94 -22,-20 -64,-30 -124,-31l-86 0 0 631c0,59 24,88 71,88l-20 54zm1022 16c-22,-10 -73,-16 -154,-16l-450 0 -21 -54c62,0 93,-25 93,-75l0 -585c0,-50 -34,-75 -101,-75l23 -55 286 0 24 55c-62,0 -93,25 -93,75l0 497c0,58 11,98 33,120 21,22 68,33 140,33 113,0 197,-47 251,-142l25 19c-26,65 -45,132 -56,203zm829 0c-22,-10 -73,-16 -154,-16l-450 0 -21 -54c62,0 93,-25 93,-75l0 -585c0,-50 -34,-75 -101,-75l23 -55 447 0c39,0 72,-6 97,-17 11,61 31,123 62,184l-28 17c-69,-82 -167,-123 -294,-123l-67 0 0 312 86 0c77,0 116,-24 116,-72l31 -16c11,66 38,140 79,222l-33 21c-32,-63 -89,-95 -172,-97l-107 0 0 196c0,58 11,98 33,120 21,22 68,33 140,33 113,0 197,-47 251,-142l25 19c-26,65 -45,132 -56,203zm953 -16l-129 0c-65,-3 -109,-61 -131,-175 -23,-114 -74,-171 -153,-171 -15,0 -33,4 -55,10l-25 -28c29,-32 47,-59 53,-81 16,16 43,24 82,24 34,0 63,-15 85,-46 23,-31 35,-73 35,-127 0,-60 -18,-107 -54,-142 -36,-34 -86,-52 -151,-52 -17,0 -48,5 -93,13l0 614c0,71 29,107 85,107l-20 54 -247 0 -19 -54c47,0 71,-36 71,-107l0 -463c0,-94 -29,-141 -87,-141l23 -59c112,-23 231,-34 359,-34 75,0 140,25 195,74 55,49 83,106 83,170 0,129 -80,209 -239,241 96,0 159,53 190,159 31,106 86,159 166,160l-24 54zm-2209 -3752c25,-158 18,-254 12,-414l0 0 0 -3c-11,-120 -31,-198 -25,-333 4,-113 19,-216 35,-321 -117,-71 -386,-101 -501,-13 213,-8 245,-37 452,34 -7,154 -24,376 -1,536l12 108c-11,3 -22,6 -33,7l-35 -602 20 -5c-13,-3 -31,-3 -51,-3l0 0 0 0c-12,1 -26,1 -40,2l0 -1 0 1c-43,2 -129,5 -167,-1 -89,-15 -164,-39 -243,-66 11,101 47,205 57,334 7,87 -3,291 -9,455 -7,106 -13,178 5,282l0 0c-76,52 36,131 36,131 11,20 26,62 37,82 6,10 11,17 16,24l0 -1c1,1 133,187 325,22 10,-21 27,-34 46,-80 6,-14 13,-38 18,-47 3,-6 7,-10 11,-14 27,-25 71,-76 23,-114zm-6 -309c-20,-9 -29,-7 -66,-13 2,16 -10,70 -23,76 -31,14 -258,21 -309,32 -21,4 -45,10 -63,18 -24,9 -25,10 -28,11 0,-12 -4,-36 -7,-56l19 -174c62,14 335,66 467,11l10 95zm-66 -87c-3,0 -5,0 -8,1l-34 -599c9,-3 20,-5 30,-7l12 605zm-31 2c-5,0 -11,0 -17,-1l-33 -591c12,-3 25,-5 38,-8l12 600zm-39 -2c-9,0 -18,-1 -27,-2l-36 -578c16,-3 33,-6 51,-10l12 590zm-49 -5c-9,-2 -23,-3 -32,-5l-14 -565c14,-2 17,-2 31,-5l15 575zm-63 -11c-10,-2 -28,-7 -38,-9 -1,-41 0,-422 -14,-420l-7 415c-12,-3 -24,-5 -36,-8 -1,-42 -1,-419 -14,-416l-7 411c-9,-1 -17,-3 -25,-5l-8 -401c-21,80 -11,301 -13,398 -8,-2 -16,-3 -25,-4 0,-45 -2,-405 -13,-413l-7 411c-5,-1 -11,-1 -17,-1 -19,-18 4,-46 3,-242 -1,-122 -25,-193 -39,-303 67,18 182,37 251,30l9 557zm440 397c1292,410 1291,2192 -1,2601 -24,-129 -39,-214 -34,-350l-2 0 0 -87c-19,231 -4,250 29,440 -142,44 -288,65 -437,65l5 -155 1 0 2 -267 0 0 0 -14 0 0c4,-121 9,-246 15,-375l29 5 0 370c5,0 10,0 14,0l0 -397 4 0 0 397c6,0 13,0 19,-1l0 -396 4 0 0 396c6,0 13,0 19,0l0 -390 -4 -7c96,0 238,-4 366,-14 13,198 21,395 33,592 1128,-465 855,-2080 -62,-2413l0 0zm-452 2669c-151,-1 -298,-25 -435,-69 31,-158 45,-264 28,-436l0 87 -2 0c5,115 -12,231 -33,347 -1284,-417 -1278,-2190 9,-2598l0 0c-913,331 -1188,1936 -73,2408 13,-200 21,-401 34,-602 1,-12 1,-26 2,-41 58,-5 119,-15 178,-26 0,4 1,9 1,13 -13,18 -27,49 4,80 -4,22 0,53 44,67 20,6 61,4 109,-9l1 341c6,0 12,1 18,1l0 -347 4 -1 0 348c7,0 13,0 19,0l0 -354 4 -1 0 355c7,1 13,1 19,1l0 -363 4 -2 0 365c5,0 9,0 14,0l0 -370c6,-3 11,-5 17,-8 4,-1 8,-3 12,-4 6,131 11,259 15,382l0 0 0 14 0 0 3 267 0 0 0 0 0 3 4 152zm-31 -1011l8 156c-88,46 -183,63 -211,54 -36,-12 -16,-48 -16,-48 -44,-28 -5,-59 -5,-59 -10,-29 5,-42 18,-48 -6,0 -11,-1 -14,-4 -16,2 -41,8 -68,15l0 1 -12 2 0 0c-192,35 -389,45 -433,-47 -24,-51 -33,-124 -33,-206 0,-267 99,-630 99,-630 0,0 1,0 2,0 4,-16 8,-32 13,-50 11,-46 45,-154 51,-194 3,-21 11,-47 23,-60 9,-10 15,-9 26,-10 -2,67 -5,202 2,221 5,13 27,158 45,295 1,12 3,24 4,36 3,12 5,25 6,38 1,7 1,15 2,23 4,31 3,51 3,82 0,29 -1,58 -3,87 -1,12 -2,24 -4,36 -1,4 -2,8 -2,12 -5,22 -8,50 -10,72l0 0c0,0 -19,55 -36,67 -17,11 19,-15 55,-27 8,1 16,1 24,1 19,1 38,0 57,-1 16,-1 32,-2 49,-3 53,-4 106,-9 159,-14l0 0c1,-4 3,-7 6,-9 4,-2 9,-4 14,-4l0 0 0 0c7,0 15,2 19,8 1,0 2,0 3,0l0 -1 0 0c0,-5 3,-9 7,-12 4,-3 9,-4 15,-4l0 0 0 0c5,0 10,1 14,4 3,2 6,5 6,8l0 0 4 0 0 0 0 0c0,-5 3,-9 7,-12 4,-3 9,-4 14,-4l1 0 0 0c5,0 10,1 14,4 3,2 5,4 6,7l4 0c-1,-6 2,-12 6,-15 4,-3 9,-4 15,-4l0 0 0 0c6,0 11,1 14,4 4,2 6,6 7,10 46,-6 55,-4 51,-35l37 3 31 172 15 -1 -21 -149c91,-29 210,-36 236,-24 35,17 13,47 13,47 41,33 0,56 0,56 12,47 -39,43 -39,43 5,5 8,10 9,15 45,-3 90,-7 135,-11 21,-3 43,-6 64,-9 7,-2 15,-3 23,-5 40,11 80,41 63,29 -17,-11 -36,-66 -36,-66l0 0c2,-34 -2,-88 -5,-130 2,-51 4,-102 8,-153 5,-58 8,-110 16,-171 18,-137 40,-282 46,-295 7,-19 3,-154 1,-221 11,1 17,0 26,10 12,13 20,39 23,60 6,40 40,148 52,194 12,50 22,87 30,123l0 0c6,11 11,28 17,51 3,15 6,29 9,43 5,23 9,46 12,70 7,40 12,80 17,121 8,67 14,135 17,202 3,44 4,87 4,131 0,33 -1,66 -4,98 -2,17 -4,33 -7,49 -2,14 -6,27 -11,40 -1,1 -1,2 -2,3 0,1 -1,3 -1,4 -1,1 -1,2 -2,2 -1,2 -1,3 -2,4 0,0 -1,1 -1,2 -1,1 -2,2 -3,3 0,0 -1,1 -1,1 -1,2 -3,3 -4,4 -39,30 -158,47 -291,57l0 0 -6 0 0 0c-30,1 -59,1 -76,3 -3,6 -12,9 -21,9 -9,-1 -16,-4 -20,-9 -1,0 -2,0 -4,-1 0,0 0,0 0,0 0,0 1,-2 0,0l0 1c0,4 -11,12 -22,12 -11,-1 -17,-5 -20,-10l-4 -2c-2,6 -11,10 -21,10 -11,-1 -19,-5 -21,-11 -1,0 -2,0 -2,-1 -1,1 -1,2 -1,2 1,1 1,0 1,4 0,4 -10,12 -22,12 -12,-1 -22,-10 -22,-14 1,-4 1,-2 1,-3 -5,1 -12,2 -21,4 -56,11 -151,-15 -147,34l-37 -5 -4 -47 -16 -134c-5,1 -10,2 -15,2zm323 -283c66,-121 123,-248 164,-379 14,-7 54,-27 91,-28 -21,147 -30,194 -61,333 -13,54 -17,139 -16,227 -32,4 -83,9 -141,12 3,-7 4,-15 3,-26 15,-14 32,-39 3,-71 6,-19 7,-46 -31,-64 -3,-1 -7,-2 -12,-4zm-540 64c-158,-271 -270,-572 -279,-886 27,8 52,20 78,31l28 14c0,0 -8,-7 -15,-15l1 0c0,-1 82,-99 130,-145l-245 86c-10,3 -18,5 -25,6 -2,65 -5,200 1,218 4,11 19,104 34,210 21,151 31,202 63,343 9,40 13,91 15,154 52,-5 133,-7 214,-16zm133 -925c-7,4 -13,6 -18,9l0 754c6,34 12,68 18,102l0 -865zm-22 10c-9,3 -15,4 -19,3l0 585c1,6 2,11 2,17 3,38 10,82 17,124l0 -729zm-270 1637l0 -292c1,-5 3,-8 4,-10l15 18 0 301c-8,-5 -14,-11 -19,-17zm-4 -275l0 326c-2,-23 -4,-45 -6,-68 -1,0 -1,-1 -1,-1 -6,-16 -6,-186 7,-257zm27 294l0 -299 18 20 0 289c-6,-3 -13,-6 -18,-10zm22 12l0 -286 19 20 0 274c-6,-3 -13,-5 -19,-8zm23 9l0 -271 19 21 0 256c-6,-2 -13,-4 -19,-6zm23 7l0 -253 0 0c6,7 12,14 19,22l0 235c-7,-1 -13,-3 -19,-4zm23 5l0 -232c6,7 12,14 19,20l0 216c-7,-1 -13,-3 -19,-4zm23 4l0 -212c6,7 13,14 19,20l0 195c-7,0 -13,-1 -19,-3zm23 4l0 -192c3,5 7,8 9,12 5,5 3,4 8,3 0,0 1,0 1,0l0 179c-6,0 -12,-1 -18,-2zm22 3l0 -182c7,-4 14,-11 19,-19l0 203c-6,-1 -12,-1 -19,-2zm23 2l0 -209c6,-9 10,-19 14,-26l5 -9 0 246c-6,-1 -13,-1 -19,-2zm23 2l0 -254 19 -36 0 292c-7,-1 -13,-1 -19,-2zm23 2l0 -300 19 -36 0 337c-7,0 -13,-1 -19,-1zm-312 -1063c12,0 22,13 22,29 0,16 -10,29 -22,29 -13,0 -23,-13 -23,-29 0,-16 10,-29 23,-29zm591 -653c7,4 13,6 19,9l0 754c-6,34 -13,68 -19,102l0 -865zm23 10c8,3 14,4 18,3l0 585c0,6 -1,11 -2,17 -3,38 -9,82 -16,124l0 -729zm269 1637l0 -292c-1,-5 -2,-8 -4,-10l-14 18 0 301c7,-5 13,-11 18,-17zm4 -275l0 326c2,-23 4,-45 7,-68 0,0 0,-1 0,-1 6,-16 6,-186 -7,-257zm-26 294l0 -299 -19 20 0 289c7,-3 13,-6 19,-10zm-23 12l0 -286 -19 20 0 274c7,-3 13,-5 19,-8zm-23 9l0 -271 -19 21 0 256c7,-2 13,-4 19,-6zm-23 7l0 -253 0 0c-5,7 -12,14 -19,22l0 235c7,-1 13,-3 19,-4zm-23 5l0 -232c-6,7 -12,14 -18,20l0 216c6,-1 12,-3 18,-4zm-23 4l0 -212c-6,7 -13,14 -18,20l0 195c6,0 12,-1 18,-3zm-22 4l0 -192c-4,5 -8,8 -10,12 -5,5 -3,4 -8,3 0,0 -1,0 -1,0l0 179c6,0 12,-1 19,-2zm-23 3l0 -182c-7,-4 -13,-11 -19,-19l0 203c6,-1 13,-1 19,-2zm-23 2l0 -209c-6,-9 -10,-19 -14,-26l-5 -9 0 246c7,-1 13,-1 19,-2zm-23 2l0 -254 -19 -36 0 292c7,-1 13,-1 19,-2zm-23 2l1 -300 -19 -36 0 337c6,0 12,-1 18,-1zm-22 1l0 -344 -19 -37 0 382c6,0 12,-1 19,-1zm335 -1064c-13,0 -23,13 -23,29 0,16 10,29 23,29 12,0 22,-13 22,-29 0,-16 -10,-29 -22,-29zm-227 698c-16,0 -30,13 -30,29 0,16 14,28 30,28 17,0 31,-12 31,-28 0,-16 -14,-29 -31,-29zm298 -903c15,-108 30,-203 34,-214 7,-18 3,-153 1,-218 -6,-1 -14,-3 -25,-6l-244 -86c48,46 129,144 129,145l1 0c-7,8 -14,15 -14,15l27 -14c26,-11 51,-23 78,-31 -4,148 -32,294 -76,435 4,-2 9,-5 15,-7l18 -73 54 2 -8 52c4,0 7,0 10,0z"/>
 </g>
</svg>
