<?xml version="1.0" encoding="UTF-8"?>
<!DOCTYPE svg PUBLIC "-//W3C//DTD SVG 1.1//EN" "http://www.w3.org/Graphics/SVG/1.1/DTD/svg11.dtd">
<!-- Creator: CorelDRAW X8 -->
<svg xmlns="http://www.w3.org/2000/svg" xml:space="preserve" width="100mm" height="100mm" version="1.1" style="shape-rendering:geometricPrecision; text-rendering:geometricPrecision; image-rendering:optimizeQuality; fill-rule:evenodd; clip-rule:evenodd"
viewBox="0 0 10000 10000"
 xmlns:xlink="http://www.w3.org/1999/xlink">
 <defs>
  <style type="text/css">
   <![CDATA[
    .fil0 {fill:#442767}
   ]]>
  </style>
 </defs>
 <g id="Layer_x0020_1">
  <metadata id="CorelCorpID_0Corel-Layer"/>
  <path class="fil0" d="M4980 4361c12,1 25,-5 33,-14l0 550c-2,1 -3,1 -5,1l-1 1c6,-180 11,-366 6,-552l1 -1c2,1 5,2 7,3l0 546 3 -1 0 -543c4,1 8,3 11,4l0 536 3 0 0 -534c4,1 7,3 11,5l0 527c14,-3 29,-5 42,-7 22,-2 41,-2 55,0 125,-247 135,-437 135,-475 -20,9 -82,36 -93,35l0 0 -85 -102c2,63 -6,153 -8,185 0,12 -1,25 -2,40l0 -285c5,11 8,32 9,58l89 101 40 -36c-14,-19 -59,-80 -69,-88 -14,-5 -13,-6 -24,-17 -8,-9 -16,-17 -24,-26 -5,-7 -20,-20 -21,-27 -8,5 -6,22 -2,31l-1 0 0 320c-3,38 -7,78 -11,111l0 -346c1,-23 4,-57 -9,-82 -2,-3 -3,-7 -3,-11 -11,3 -27,13 -54,23 -9,-9 -21,-14 -33,-13 -12,-1 -24,4 -33,13 -27,-10 -44,-20 -54,-23 -1,4 -2,8 -3,11 -14,25 -11,59 -10,82l0 346c-4,-33 -8,-73 -11,-111l0 -320 0 0c4,-9 5,-26 -2,-31 -2,7 -16,20 -22,27 -8,9 -16,17 -24,26 -10,11 -10,12 -24,17 -10,8 -55,69 -68,88l40 36 88 -101c1,-26 4,-47 10,-58l0 285c-1,-15 -2,-28 -3,-40 -2,-32 -10,-122 -7,-185l-86 102 0 0c-11,1 -72,-26 -93,-35 1,40 12,248 156,514 27,-4 54,-7 78,-10 0,-4 -1,-9 -2,-12l0 -537c4,-2 8,-4 12,-5l0 553 2 -1 0 -554c4,-1 8,-3 12,-4l0 557 2 0 0 -559c3,-1 5,-2 8,-3l0 1c-4,189 0,377 7,559l-7 0 0 -559c9,9 21,15 34,14zm158 -299c15,-96 11,-154 7,-251l0 1 0 -2c-6,-73 -19,-120 -15,-202 3,-68 11,-130 21,-194 -70,-42 -233,-60 -302,-7 128,-5 148,-23 273,20 -5,93 -15,227 -1,324l7 65c-7,2 -13,4 -20,5l-21 -364 12 -3c-8,-2 -18,-2 -31,-2l0 0 0 0c-7,0 -15,1 -23,1l-1 0 1 0c-27,2 -79,3 -102,-1 -53,-8 -98,-23 -147,-40 7,62 29,125 35,202 4,53 -2,177 -5,276 -5,63 -8,107 2,170l0 0c-46,31 22,79 22,79 7,12 16,37 23,49 3,6 6,11 9,15l1 -1c0,1 80,113 195,13 6,-12 17,-20 29,-48 3,-8 7,-23 10,-28 2,-4 5,-6 7,-9 16,-15 43,-45 14,-68zm-4 -187c-12,-6 -17,-4 -40,-8 2,9 -6,42 -14,46 -18,8 -155,13 -186,19 -13,3 -27,6 -38,11 -15,6 -15,6 -17,7 0,-7 -3,-22 -4,-34l11 -105c38,8 202,40 282,6l6 58zm-39 -53c-2,0 -4,1 -6,1l-20 -362c6,-2 12,-3 18,-4l8 365zm-19 1c-4,0 -7,0 -10,0l-21 -357c8,-2 15,-3 23,-5l8 362zm-24 -1c-5,0 -11,0 -16,-1l-22 -349c10,-2 20,-4 31,-6l7 356zm-29 -3c-6,-1 -14,-2 -20,-3l-8 -341c8,-1 10,-1 19,-3l9 347zm-38 -7c-6,-1 -17,-3 -23,-5 -1,-25 -1,-255 -9,-253l-4 250c-8,-1 -15,-3 -22,-5 -1,-25 0,-253 -9,-251l-4 249c-5,-2 -10,-2 -15,-3l-5 -243c-12,49 -6,182 -7,240 -5,0 -10,-1 -15,-2 -1,-27 -2,-244 -8,-250l-4 249c-4,-1 -7,-1 -11,-1 -11,-11 3,-27 2,-146 -1,-74 -15,-116 -24,-183 41,11 110,22 152,18l6 336zm-638 2804l-27 0c-10,0 -16,-11 -20,-35 -3,-23 -13,-35 -28,-35 -5,0 -9,-3 -12,-9l0 53c0,11 4,16 13,16l-4 10 -44 0 -4 -10c9,0 13,-5 13,-16l0 -106c0,-9 -4,-14 -14,-14l4 -10 45 0 4 10c-9,0 -13,5 -13,14l0 53c17,-45 39,-72 65,-79 1,7 5,14 11,21 -32,9 -52,27 -60,53 23,0 38,12 44,37 6,25 16,37 29,37l-2 10zm195 3c-4,-2 -14,-3 -29,-3l-83 0 -4 -10c11,0 17,-4 17,-14l0 -108c0,-9 -6,-14 -19,-14l5 -10 82 0c8,0 14,-1 19,-3 1,11 5,22 11,34l-5 3c-13,-15 -31,-23 -55,-23l-12 0 0 58 16 0c14,0 21,-4 21,-13l6 -3c2,12 7,26 15,41l-6 4c-6,-12 -17,-18 -32,-18l-20 0 0 36c0,11 2,18 6,22 4,4 13,6 26,6 21,0 36,-8 46,-26l5 4c-5,12 -8,24 -10,37zm180 -3l-44 0 -4 -10c8,0 13,-5 13,-16l0 -117 -16 0c-11,0 -18,2 -23,6 -4,3 -8,9 -12,17l-7 -2c5,-13 7,-25 7,-37 3,2 15,3 36,3l60 0c19,0 30,-1 33,-3 0,13 2,25 6,36l-9 3c-3,-8 -6,-14 -11,-17 -4,-4 -11,-6 -22,-6l-16 0 0 117c0,11 4,16 13,16l-4 10zm241 3c-4,-2 -14,-3 -29,-3l-83 0 -4 -10c12,0 17,-4 17,-14l0 -108c0,-9 -6,-14 -18,-14l4 -10 83 0c7,0 13,-1 18,-3 2,11 6,22 11,34l-5 3c-13,-15 -31,-23 -54,-23l-13 0 0 58 16 0c14,0 22,-4 22,-13l5 -3c2,12 7,26 15,41l-6 4c-6,-12 -17,-18 -32,-18l-20 0 0 36c0,11 2,18 6,22 4,4 13,6 26,6 21,0 37,-8 47,-26l4 4c-4,12 -8,24 -10,37zm228 -3l-24 0c-12,0 -20,-11 -24,-32 -4,-21 -14,-32 -28,-32 -3,0 -6,1 -10,2l-5 -5c5,-6 9,-11 10,-15 3,3 8,4 15,4 6,0 12,-3 16,-8 4,-6 6,-14 6,-24 0,-11 -3,-20 -10,-26 -6,-7 -16,-10 -28,-10 -3,0 -9,1 -17,3l0 113c0,14 5,20 16,20l-4 10 -46 0 -3 -10c8,0 13,-6 13,-20l0 -85c0,-18 -6,-27 -16,-27l4 -11c21,-4 43,-6 66,-6 14,0 26,5 37,14 10,9 15,20 15,31 0,24 -15,39 -44,45 17,0 29,10 35,30 6,19 16,29 31,29l-5 10zm128 0l-44 0 -4 -10c9,0 13,-5 13,-16l0 -106c0,-9 -5,-14 -14,-14l4 -10 45 0 4 10c-9,0 -13,5 -13,14l0 106c0,11 4,16 13,16l-4 10zm221 0l-10 0 -95 -113 0 79c0,16 6,24 17,24l-4 10 -38 0 -4 -10c10,0 15,-8 15,-24l0 -91c0,-14 -5,-21 -16,-21l5 -10 24 0 92 111 0 -80c0,-14 -5,-21 -15,-21l4 -10 34 0 5 10c-10,0 -14,7 -14,21l0 125zm228 10l-5 0c0,-12 -6,-20 -16,-24 -13,11 -28,17 -45,17 -17,0 -32,-7 -44,-21 -13,-13 -19,-31 -19,-53 0,-25 7,-47 20,-64 14,-16 33,-25 57,-25 11,0 25,2 40,6 0,10 3,22 9,35l-11 3c-10,-22 -23,-34 -40,-34 -14,0 -26,6 -35,19 -9,12 -13,28 -13,47 0,20 5,37 15,51 9,13 21,20 35,20 9,0 17,-3 22,-9 5,-6 8,-12 8,-18 0,-14 -6,-21 -17,-21l-3 -9 57 0 -3 9c-8,0 -12,4 -12,11l0 60zm-2120 -327c23,0 44,-11 62,-33 18,-22 28,-51 28,-88 0,-38 -11,-65 -31,-82 -20,-16 -40,-25 -60,-25 -15,0 -25,2 -32,6 -2,-13 -7,-23 -13,-31 76,-12 114,-46 114,-104 0,-60 -30,-90 -88,-90l-52 0 0 367c0,26 7,46 20,59 13,14 31,21 52,21zm14 32l-213 0 -13 -32c37,0 56,-16 56,-46l0 -353c0,-31 -20,-46 -61,-46l14 -33 214 0c95,0 142,38 142,115 0,44 -32,81 -95,111 83,21 124,65 124,133 0,41 -15,77 -44,107 -29,30 -71,44 -124,44zm565 -186l-64 -170 -64 170 128 0zm182 186l-174 0 -9 -32c29,0 43,-10 43,-30 0,-13 -9,-40 -27,-82l-159 0 -22 70c-3,7 -4,12 -4,18 0,16 14,24 43,24l-10 32 -136 0 -10 -32c32,0 58,-26 79,-77l117 -305c-11,-29 -26,-44 -47,-45l-16 0 -13 -28c13,0 31,-7 52,-19 22,-13 41,-20 56,-20 13,0 26,19 40,55l134 365c5,13 11,28 20,46 8,19 26,28 53,28l-10 32zm317 0l-144 0 -14 -32c29,0 43,-18 43,-53l0 -382 -51 0c-35,0 -60,6 -74,18 -14,13 -27,32 -40,58l-24 -9c15,-40 23,-81 23,-121 10,8 49,11 118,11l196 0c63,0 99,-3 107,-10 0,44 6,84 18,120l-27 9c-9,-26 -21,-45 -35,-57 -13,-12 -38,-19 -75,-19l-52 0 0 382c0,35 15,53 43,53l-12 32zm662 10c-13,-6 -44,-10 -93,-10l-272 0 -12 -32c37,0 55,-16 55,-46l0 -353c0,-31 -20,-46 -60,-46l13 -33 174 0 14 33c-37,0 -56,15 -56,46l0 300c0,35 6,60 19,73 13,13 42,20 85,20 68,0 119,-29 152,-86l15 11c-15,39 -27,80 -34,123zm546 0c-13,-6 -44,-10 -93,-10l-272 0 -13 -32c37,0 56,-16 56,-46l0 -353c0,-31 -20,-46 -61,-46l14 -33 270 0c24,0 44,-3 59,-10 7,37 19,74 37,111l-16 10c-42,-49 -101,-74 -178,-74l-40 0 0 189 51 0c47,0 70,-15 70,-44l19 -10c7,40 23,85 48,134l-20 13c-19,-38 -54,-57 -104,-59l-64 0 0 119c0,35 6,60 19,73 13,13 41,20 85,20 68,0 119,-29 152,-86l15 11c-16,39 -27,80 -34,123zm620 -10l-78 0c-39,-1 -65,-37 -79,-105 -14,-69 -44,-104 -92,-104 -9,0 -20,2 -33,6l-15 -17c17,-19 28,-35 32,-49 9,10 26,15 49,15 21,0 38,-10 52,-28 14,-18 21,-44 21,-77 0,-36 -11,-65 -33,-86 -21,-20 -52,-31 -91,-31 -11,0 -29,3 -56,8l0 371c0,43 17,65 51,65l-12 32 -149 0 -12 -32c29,0 43,-22 43,-65l0 -280c0,-57 -18,-85 -53,-85l14 -36c68,-14 140,-21 217,-21 46,0 85,15 118,45 34,30 50,64 50,103 0,78 -48,126 -144,146 58,0 96,32 115,96 19,64 52,96 100,97l-15 32zm-1304 -2279c781,248 780,1324 0,1572 -15,-79 -24,-130 -21,-212l-1 0 0 -52c-12,139 -3,150 17,265 -86,27 -174,40 -264,40l4 -94 0 0 1 -161 0 0 1 -9 0 0c2,-73 5,-148 8,-226l18 3 0 223c3,0 6,0 8,0l0 -240 3 0 0 240c4,0 7,0 11,0l0 -240 3 0 0 240c3,0 7,0 11,0l0 -236 -2 -4c58,0 143,-2 221,-9 7,120 12,239 20,358 681,-281 516,-1257 -38,-1458l0 0zm-273 1613c-91,-1 -180,-15 -262,-42 18,-96 27,-160 16,-263l0 52 -1 0c3,70 -7,140 -20,210 -775,-252 -772,-1323 6,-1570l0 0c-552,200 -718,1170 -44,1455 7,-121 12,-242 20,-364 0,-7 1,-15 1,-24 35,-3 72,-9 108,-16 0,2 0,5 1,8 -9,11 -17,29 2,48 -3,13 0,32 26,40 12,4 37,3 66,-5l1 206c3,0 7,0 11,0l0 -209 2 -1 0 211c4,0 8,0 12,0l0 -214 2 -1 0 215c4,0 8,0 12,0l0 -219 2 -1 0 220c3,0 6,0 8,0l0 -223c4,-2 7,-3 11,-5 2,-1 5,-2 7,-3 3,80 7,157 9,231l0 0 0 9 0 0 2 161 0 0 0 0 0 2 2 92zm-19 -611l5 94c-53,28 -110,38 -127,33 -22,-7 -10,-29 -10,-29 -26,-17 -3,-36 -3,-36 -6,-17 3,-25 11,-29 -3,0 -7,0 -8,-2 -10,1 -25,5 -42,9l0 0 -6 2 -1 -1c-116,22 -235,28 -261,-28 -15,-30 -20,-74 -20,-124 0,-162 59,-381 59,-381 1,0 1,0 2,0 2,-9 5,-19 7,-30 7,-28 28,-93 31,-117 2,-13 7,-28 14,-36 6,-6 10,-6 16,-6 -1,40 -3,121 1,133 3,8 17,95 27,179 1,7 2,14 3,21 2,7 3,15 3,23 1,4 1,9 2,14 2,19 1,30 1,49 0,18 0,36 -1,53 -1,7 -2,14 -3,22 0,2 -1,4 -1,7 -3,13 -5,30 -6,43l0 0c0,0 -12,34 -22,41 -10,7 12,-9 34,-17 4,1 9,1 14,1 11,0 23,0 34,0 10,-1 20,-1 30,-2 32,-2 64,-6 96,-9l0 0c0,-2 2,-4 4,-5 2,-2 5,-3 8,-3l0 0 0 0c5,0 9,2 12,6 0,0 1,-1 2,-1l0 0 0 0c0,-3 1,-6 4,-8 2,-1 5,-2 8,-2l0 0 0 0c4,0 7,1 9,2 2,2 3,3 4,6l0 0 2 -1 0 0 0 0c0,-3 2,-5 4,-7 3,-2 6,-3 9,-3l0 0 0 0c4,0 7,1 9,3 2,1 3,3 4,4l2 0c-1,-4 1,-7 4,-9 2,-1 5,-2 9,-2l0 0 0 0c3,0 6,1 8,2 3,2 4,4 4,6 28,-3 34,-2 31,-21l23 2 18 104 9 -1 -13 -90c55,-17 127,-22 143,-14 22,10 8,28 8,28 25,20 0,34 0,34 7,28 -24,26 -24,26 3,3 5,6 6,9 27,-2 54,-4 82,-7 12,-1 25,-3 38,-5 5,-1 9,-2 14,-3 24,7 48,25 38,18 -10,-7 -22,-41 -22,-41l0 0c1,-20 -1,-52 -3,-78 2,-31 3,-62 5,-92 3,-36 5,-67 10,-103 11,-84 24,-171 27,-179 5,-12 3,-93 1,-133 7,0 11,0 16,6 7,8 12,23 14,36 4,24 24,89 31,117 8,30 13,52 19,74l0 0c3,7 6,17 9,31 3,9 4,18 6,26 3,14 5,28 8,42 3,24 7,49 10,74 4,40 8,81 10,122 1,26 2,52 2,79 0,19 0,39 -2,59 -1,10 -2,20 -4,29 -2,9 -4,17 -7,25 -1,0 -1,1 -1,2 0,0 -1,1 -1,2 0,0 -1,1 -1,1 0,1 -1,2 -1,2 -1,1 -1,1 -1,2 -1,0 -1,1 -2,1 0,1 0,1 0,1 -1,1 -2,2 -3,2 -23,18 -95,29 -176,35l0 0 -3 0 0 0c-18,0 -36,1 -46,2 -2,3 -7,5 -13,5 -5,0 -10,-2 -12,-5 0,0 -1,-1 -2,-1 0,0 0,0 0,0 0,0 0,-1 0,0l0 1c0,2 -7,7 -13,7 -7,-1 -11,-3 -13,-6l-2 -1c-1,3 -7,6 -13,6 -6,-1 -11,-3 -12,-7 -1,0 -1,0 -2,0 0,0 0,0 0,1 0,1 0,0 0,2 0,2 -6,7 -13,7 -7,0 -13,-6 -13,-8 0,-2 0,-1 0,-2 -3,1 -7,1 -12,2 -34,7 -91,-8 -89,21l-23 -3 -2 -29 -10 -80c-3,0 -6,1 -9,1zm196 -171c40,-73 74,-150 99,-229 8,-4 32,-17 54,-17 -12,89 -18,118 -37,201 -7,33 -9,84 -9,137 -19,3 -50,6 -85,8 2,-4 2,-10 2,-16 9,-8 19,-24 2,-43 3,-11 4,-28 -19,-38 -2,-1 -5,-2 -7,-3zm-327 38c-95,-163 -163,-345 -168,-534 16,4 31,12 47,18l17 9c0,0 -5,-4 -9,-9l0 -1c1,0 50,-59 79,-87l-148 52c-6,2 -11,3 -15,3 -1,40 -3,121 1,132 2,7 11,63 20,127 13,91 19,122 38,207 5,25 8,55 9,93 32,-3 80,-4 129,-10zm81 -558c-4,2 -8,4 -11,5l0 456c3,20 7,41 11,61l0 -522zm-14 6c-5,2 -9,3 -11,2l0 353c0,4 1,7 1,10 2,23 6,50 10,75l0 -440zm-163 989l0 -177c1,-2 2,-4 3,-6l9 11 0 182c-5,-3 -9,-7 -12,-10zm-2 -166l0 196c-1,-13 -2,-27 -4,-40 0,-1 0,-1 0,-1 -4,-10 -4,-113 4,-155zm16 177l0 -180 11 12 0 175c-4,-2 -8,-4 -11,-7zm14 8l0 -173 11 12 0 165c-4,-1 -8,-3 -11,-4zm14 5l0 -164 11 13 0 154c-4,-1 -8,-2 -11,-3zm13 4l0 -153 0 0c4,5 8,9 12,13l0 143c-4,-1 -8,-2 -12,-3zm14 3l0 -140c4,4 8,8 12,12l0 130c-4,0 -8,-1 -12,-2zm14 3l0 -128c4,4 8,8 11,12l0 118c-4,-1 -7,-1 -11,-2zm14 2l0 -116c2,3 4,5 6,7 2,3 1,3 4,2 1,0 1,0 1,0l0 109c-4,-1 -8,-1 -11,-2zm14 2l0 -110c4,-3 8,-7 11,-12l0 123c-4,0 -8,-1 -11,-1zm13 1l0 -126c4,-6 6,-12 9,-16l3 -6 0 149c-4,0 -8,0 -12,-1zm14 1l0 -153 11 -22 0 176c-3,0 -7,0 -11,-1zm14 1l0 -181 11 -22 0 204c-4,0 -7,0 -11,-1zm-189 -641c8,0 14,7 14,17 0,10 -6,17 -14,17 -7,0 -13,-7 -13,-17 0,-10 6,-17 13,-17zm357 -395c5,2 8,4 12,5l0 456c-4,20 -8,41 -12,61l0 -522zm14 6c5,2 9,3 11,2l0 353c0,4 -1,7 -1,10 -2,23 -6,50 -10,75l0 -440zm163 989l0 -177c-1,-2 -2,-4 -3,-6l-8 11 0 182c4,-3 8,-7 11,-10zm3 -166l0 196c1,-13 2,-27 3,-40 0,-1 1,-1 1,-1 3,-10 3,-113 -4,-155zm-17 177l0 -180 -11 12 0 175c4,-2 8,-4 11,-7zm-13 8l0 -173 -12 12 0 165c4,-1 8,-3 12,-4zm-14 5l0 -164 -12 13 0 154c4,-1 8,-2 12,-3zm-14 4l0 -153 0 0c-3,5 -7,9 -11,13l0 143c4,-1 7,-2 11,-3zm-14 3l0 -140c-4,4 -7,8 -11,12l0 130c4,0 8,-1 11,-2zm-14 3l0 -128c-4,4 -8,8 -11,12l0 118c4,-1 8,-1 11,-2zm-13 2l0 -116c-3,3 -5,5 -6,7 -3,3 -2,3 -5,2 0,0 0,0 -1,0l0 109c4,-1 8,-1 12,-2zm-14 2l0 -110c-4,-3 -8,-7 -11,-12l0 123c3,0 7,-1 11,-1zm-14 1l0 -126c-3,-6 -6,-12 -8,-16l-3 -6 0 149c4,0 7,0 11,-1zm-14 1l0 -153 -11 -22 0 176c4,0 8,0 11,-1zm-13 1l0 -181 -12 -22 0 204c4,0 8,0 12,-1zm-14 1l0 -208 -12 -22 0 230c4,0 8,0 12,0zm202 -642c-7,0 -14,7 -14,17 0,10 7,17 14,17 8,0 14,-7 14,-17 0,-10 -6,-17 -14,-17zm-137 421c-10,0 -18,8 -18,17 0,10 8,18 18,18 11,0 19,-8 19,-18 0,-9 -8,-17 -19,-17zm180 -546c9,-65 18,-122 21,-129 4,-11 2,-92 0,-132 -4,0 -8,-1 -15,-3l-147 -52c29,28 78,87 78,87l0 1c-4,5 -8,9 -8,9l16 -9c16,-6 31,-14 47,-18 -2,89 -19,177 -45,262 2,-1 5,-3 8,-4l11 -44 33 1 -5 32c2,-1 4,-1 6,-1z"/>
 </g>
</svg>
